# Blender v2.79 (sub 0) OBJ File: 'untitled.blend'
# www.blender.org
o Cube
v 1.000000 -1.000000 -1.000000
v 1.000000 -1.000000 1.000000
v -1.000000 -1.000000 1.000000
v -1.000000 -1.000000 -1.000000
v 1.000000 1.000000 -0.999999
v 0.999999 1.000000 1.000001
v -1.000000 1.000000 1.000000
v -1.000000 1.000000 -1.000000
vt 0.006784 0.000343
vt 1.007469 0.000343
vt 1.007470 1.001029
vt 0.006784 1.001029
vt 1.000343 -0.000343
vt 1.000343 1.000343
vt -0.000343 1.000343
vt -0.000343 -0.000342
vt 1.000343 1.007469
vt -0.000343 1.007470
vt -0.000343 0.006784
vt 1.000343 0.006784
vt 0.006784 0.999657
vt 0.006784 -0.001028
vt 1.007469 -0.001029
vt 1.007470 0.999657
vt 1.008841 1.007470
vt 0.008156 1.007470
vt 0.008155 0.006784
vt 1.008841 0.006784
vt 0.006784 -0.000343
vt 1.007469 -0.000343
vt 1.007470 1.000343
vt 0.006784 1.000343
vn 0.0000 -1.0000 0.0000
vn 0.0000 1.0000 0.0000
vn 1.0000 0.0000 0.0000
vn -0.0000 -0.0000 1.0000
vn -1.0000 -0.0000 -0.0000
vn 0.0000 0.0000 -1.0000
s off
f 1/1/1 2/2/1 3/3/1 4/4/1
f 5/5/2 8/6/2 7/7/2 6/8/2
f 1/9/3 5/10/3 6/11/3 2/12/3
f 2/13/4 6/14/4 7/15/4 3/16/4
f 3/17/5 7/18/5 8/19/5 4/20/5
f 5/21/6 1/22/6 4/23/6 8/24/6
